<?xml version="1.0" standalone="no"?>
<!DOCTYPE svg PUBLIC "-//W3C//DTD SVG 20010904//EN"
 "http://www.w3.org/TR/2001/REC-SVG-20010904/DTD/svg10.dtd">
<svg version="1.0" xmlns="http://www.w3.org/2000/svg"
 width="700.000000pt" height="700.000000pt" viewBox="0 0 700.000000 700.000000"
 preserveAspectRatio="xMidYMid meet">
<metadata>
Created by potrace 1.14, written by Peter Selinger 2001-2017
</metadata>
<g transform="translate(0.000000,700.000000) scale(0.100000,-0.100000)"
fill="#000000" stroke="none">
<path d="M2815 5516 c-100 -20 -175 -51 -260 -107 -216 -145 -328 -381 -310
-654 29 -447 256 -844 665 -1162 221 -172 507 -312 612 -300 99 12 325 125
500 250 445 318 698 734 733 1202 12 158 -24 319 -97 443 -43 73 -168 198
-241 241 -233 137 -518 129 -740 -19 -40 -27 -96 -73 -125 -104 l-52 -55 -52
56 c-54 57 -131 114 -204 151 -113 58 -301 83 -429 58z"/>
<path d="M1556 2784 c-58 -18 -132 -88 -163 -155 -53 -112 -50 -220 10 -342
l33 -67 -35 -10 c-135 -35 -373 -45 -641 -26 -145 10 -153 -2 -20 -31 133 -28
488 -25 628 5 l103 23 46 -41 c54 -48 141 -91 233 -116 49 -14 100 -18 210
-18 226 1 331 27 780 196 482 181 719 220 968 157 265 -67 492 -302 573 -594
32 -112 32 -277 0 -394 -12 -47 -25 -90 -29 -97 -5 -9 -40 9 -117 58 -348 222
-584 269 -813 161 -70 -33 -169 -130 -202 -198 -21 -43 -25 -64 -25 -155 0
-98 2 -110 32 -173 137 -288 516 -350 835 -136 89 59 205 182 258 272 25 42
49 77 53 77 4 0 43 -20 86 -45 167 -96 303 -137 456 -137 169 0 328 50 485
154 311 205 515 538 655 1073 30 114 65 293 65 334 0 43 -23 -22 -65 -179
-116 -436 -197 -643 -336 -851 -125 -187 -332 -360 -512 -430 -249 -96 -453
-75 -717 75 -54 30 -94 59 -93 67 1 8 13 58 27 113 118 450 -162 933 -609
1052 -56 15 -105 19 -245 19 -164 0 -183 -2 -303 -33 -151 -38 -208 -57 -502
-167 -340 -128 -476 -163 -665 -172 -84 -4 -138 -1 -200 11 -92 17 -211 69
-248 109 l-23 24 48 18 c217 80 345 250 304 401 -35 131 -190 211 -325 168z
m185 -57 c24 -13 57 -42 73 -65 98 -139 -18 -320 -260 -408 l-63 -23 -22 31
c-89 124 -90 288 -5 400 66 87 184 114 277 65z m1973 -1247 c43 -11 121 -40
175 -65 109 -52 320 -182 328 -202 7 -19 -80 -154 -144 -224 -66 -71 -192
-156 -285 -193 -198 -78 -401 -50 -531 73 -123 116 -157 271 -91 408 44 91
169 186 281 212 68 16 186 12 267 -9z"/>
</g>
</svg>
