<?xml version="1.0" standalone="no"?>
<!DOCTYPE svg PUBLIC "-//W3C//DTD SVG 20010904//EN"
 "http://www.w3.org/TR/2001/REC-SVG-20010904/DTD/svg10.dtd">
<svg version="1.0" xmlns="http://www.w3.org/2000/svg"
 width="700.000000pt" height="700.000000pt" viewBox="0 0 700.000000 700.000000"
 preserveAspectRatio="xMidYMid meet">
<metadata>
Created by potrace 1.14, written by Peter Selinger 2001-2017
</metadata>
<g transform="translate(0.000000,700.000000) scale(0.100000,-0.100000)"
fill="#000000" stroke="none">
<path d="M3328 5154 c-2 -1 -32 -5 -68 -8 -170 -14 -362 -75 -511 -162 -333
-194 -505 -516 -458 -857 34 -254 202 -462 488 -606 110 -55 221 -92 786 -267
293 -91 348 -111 445 -160 155 -79 223 -169 224 -298 0 -90 -31 -162 -101
-232 -65 -65 -193 -133 -282 -149 -14 -3 -37 -8 -51 -11 -60 -16 -285 -11
-376 7 -127 25 -272 83 -350 139 -12 8 -32 22 -45 30 -46 30 -166 156 -208
218 -24 35 -56 92 -73 127 -26 57 -32 63 -51 56 -12 -5 -60 -20 -107 -34 -174
-53 -326 -100 -375 -114 -27 -8 -58 -17 -67 -20 -28 -8 -22 -31 35 -143 81
-160 188 -307 290 -399 22 -20 48 -43 56 -51 182 -177 541 -333 846 -368 119
-14 435 -6 525 12 47 10 96 19 110 22 55 10 190 58 277 99 300 141 508 387
567 671 18 87 19 263 0 350 -57 273 -224 451 -559 595 -85 36 -543 193 -600
205 -11 2 -264 84 -449 145 -66 22 -141 51 -167 66 -185 100 -216 293 -71 442
86 88 238 142 407 144 99 1 160 -5 267 -29 15 -3 31 -6 35 -6 5 -1 40 -14 78
-30 162 -67 296 -172 381 -299 52 -79 31 -77 209 -24 61 18 169 50 240 70 72
21 140 41 153 46 l22 9 -36 72 c-96 192 -241 354 -437 487 -51 34 -218 124
-252 134 -11 3 -45 15 -75 27 -64 24 -225 65 -291 74 -25 4 -59 9 -75 12 -29
5 -302 13 -306 8z"/>
</g>
</svg>
