<svg width="328" height="174" viewBox="0 0 328 174" fill="none" xmlns="http://www.w3.org/2000/svg">
<path d="M274.466 17.1935C271.264 18.6005 267.984 21.8053 266.579 24.8538C265.876 26.2608 264.704 28.6839 263.923 30.1691C261.112 35.4844 258.379 45.7242 256.036 60.1849C254.864 67.3762 254.474 73.6295 254.474 87.3868C254.396 104.193 254.318 105.287 252.834 106.069C251.584 106.694 250.882 106.459 249.007 104.583C246.742 102.317 239.48 100.128 237.137 100.91C236.668 101.066 232.842 101.613 228.781 102.082C224.72 102.551 220.424 103.098 219.253 103.333C217.613 103.724 217.066 103.489 217.066 102.629C217.066 100.753 221.986 97.5484 225.344 97.2357C227.922 97.0012 228.39 96.6886 228.624 94.9689C228.781 93.4838 228.39 92.7803 226.828 92.0768C225.735 91.5296 224.173 91.1388 223.314 91.1388C220.659 91.1388 214.723 94.1873 212.381 96.7667C210.428 98.8772 210.038 99.9716 210.038 103.333C210.038 107.241 210.116 107.397 212.927 108.726C215.504 109.977 216.52 109.977 224.407 109.117C229.171 108.492 235.184 108.023 237.762 108.023C242.057 107.945 242.447 108.101 242.682 109.664C242.838 110.68 242.603 111.462 242.135 111.462C241.666 111.462 239.011 113.025 236.122 114.979C233.31 116.934 230.811 118.497 230.499 118.497C230.186 118.497 228.156 120.06 225.969 122.014C221.83 125.61 220.737 127.955 221.83 130.847C223.314 134.834 235.575 131.707 244.009 125.219C248.07 122.093 248.851 121.155 250.725 117.168C251.584 115.37 252.6 113.651 253.068 113.338C254.786 112.322 256.114 115.136 256.895 121.233C257.91 129.518 259.082 132.567 261.19 132.567C263.299 132.567 264.314 131.394 268.531 124.359C270.327 121.311 272.202 118.184 272.748 117.324C275.091 113.416 280.792 106.147 282.979 104.271C285.946 101.691 288.836 101.535 290.554 103.88C291.257 104.818 292.038 108.101 292.35 111.462C293.522 123.265 294.771 127.955 297.426 130.378C301.097 133.661 305.08 133.036 309.375 128.659C310.937 127.017 315.466 117.246 315.466 115.448C315.466 114.667 315.935 112.634 316.56 110.993C317.887 107.007 317.028 104.427 314.295 104.427C312.967 104.427 312.108 104.974 311.64 106.147C311.249 107.163 310.39 109.508 309.609 111.462C306.954 118.575 305.626 120.451 303.283 120.451C300.16 120.451 299.066 117.872 299.066 110.211C299.066 103.333 297.504 97.3139 294.927 94.4218C292.741 91.9986 286.649 91.9986 283.213 94.4218C279.152 97.2357 270.952 106.85 267.125 113.26C266.11 114.823 264.704 116.543 263.923 116.934C262.752 117.559 262.518 117.246 262.127 114.354C261.659 111.306 261.971 110.602 266.813 103.411C271.733 96.1414 278.996 82.6968 280.323 78.6322C280.714 77.5378 281.729 74.7239 282.666 72.3789C287.508 59.9504 289.695 49.0072 289.695 37.3604C289.695 24.3848 287.899 19.6948 281.651 17.0372C278.918 15.8647 277.434 15.8647 274.466 17.1935ZM281.026 27.7459C283.76 30.4818 284.462 36.6569 283.135 45.0207C281.729 53.619 280.558 58.4653 279.074 62.0609C278.449 63.4679 277.981 65.1876 277.981 65.9692C277.981 66.6727 277.434 68.0016 276.809 68.7832C276.184 69.6431 275.638 70.8937 275.638 71.5972C275.638 72.6915 272.826 78.3977 264.47 94.4218C261.034 101.066 260.331 97.0794 261.424 77.9287C262.362 63.2334 263.455 54.557 265.485 46.1932C267.75 37.0477 272.592 28.7621 276.809 27.0424C279.074 26.0263 279.386 26.1045 281.026 27.7459Z" fill="#FFCE04"/>
<path d="M35.1043 31.7324C33.152 31.9669 29.872 33.2176 27.6853 34.3901C23.8586 36.5787 17.9234 42.2849 17.9234 43.9264C17.9234 44.3172 17.5329 45.0989 16.9862 45.646C15.4243 47.2093 13.2377 55.3386 13.2377 59.4814C13.3158 66.5946 16.8301 76.9125 22.2186 85.2763C23.0777 86.527 23.9367 87.7776 24.171 88.0121C24.4053 88.2466 26.592 90.9824 29.091 94.0309C31.5901 97.1576 35.1824 101.457 37.1348 103.567C47.6777 114.979 55.4091 128.815 55.4091 136.084C55.4091 139.055 55.0186 139.758 52.5977 141.79C46.0377 147.184 37.8377 147.028 32.2148 141.4C28.9348 138.117 27.7634 136.084 26.9824 132.411C26.7481 131.238 25.9672 129.753 25.2643 129.049C24.0148 127.877 23.8586 127.877 22.4529 129.284C20.5005 131.16 19.4072 136.006 20.032 139.758C21.9062 151.952 48.3024 157.033 58.2205 147.106C60.4072 144.917 62.4377 139.446 62.4377 135.772C62.4377 132.723 60.251 125.063 58.3767 121.624C54.7843 114.901 45.7253 103.098 36.9005 93.6401C35.8072 92.4676 34.011 90.2789 32.8396 88.7938C31.7462 87.3086 30.5748 85.9016 30.3405 85.6671C29.3253 84.8073 22.9215 74.0985 21.8281 71.5972C21.2815 70.112 20.5786 65.4221 20.4224 61.2793C20.1101 53.0718 20.6567 51.274 25.1081 45.646C29.6377 39.8617 38.1501 36.8914 45.0224 38.6892C48.8491 39.7054 54.3158 45.0207 56.0339 49.4762C56.7367 51.1177 57.3615 55.8076 57.5177 59.8723C57.9081 67.5326 58.5329 69.2522 60.8758 69.2522C62.5939 69.2522 62.9843 68.2361 63.6872 62.2173C64.7024 53.3063 61.7348 44.239 55.9558 38.1421C50.5672 32.5923 43.7729 30.4818 35.1043 31.7324Z" fill="#FFCE04"/>
<path d="M141.704 86.9959C138.502 88.7156 126.632 100.675 125.695 103.176C125.07 104.896 124.601 105.209 122.805 104.74C121.556 104.505 119.76 103.88 118.822 103.411C116.714 102.395 113.981 97.5484 113.981 94.9689C113.981 93.0147 111.716 89.0282 110.388 88.4811C109.841 88.2466 108.826 88.5592 107.967 89.1846C105.859 90.7479 105.937 101.222 108.123 103.645C109.92 105.678 110.544 113.103 109.529 122.405C108.982 127.173 108.67 128.268 107.499 128.502C105.859 128.815 103.203 126.704 102.188 124.359C101.798 123.5 101.173 122.249 100.782 121.624C97.7367 116.465 95.2377 107.397 95.2377 101.457C95.2377 95.8287 93.3634 90.3571 91.411 90.3571C88.5996 90.3571 88.2091 91.9204 88.2091 103.255C88.2091 122.483 84.3043 129.831 77.51 123.187C74.6205 120.373 72.512 114.51 71.8872 107.554C71.4186 102.707 71.3405 102.473 69.31 102.238C66.1081 101.848 65.3272 104.505 66.4205 112.087C67.3577 118.731 68.8415 123.109 71.6529 126.861C77.51 134.834 87.4281 134.287 90.9424 125.845C92.1139 122.952 94.1443 122.327 95.0815 124.594C97.112 129.753 104.453 136.475 107.967 136.475C113.043 136.475 115.464 131.238 116.167 118.497C116.714 109.742 116.792 109.508 118.666 109.273C119.681 109.117 121.307 108.554 122.042 108.554C124.984 110.024 122.387 107.85 122.778 108.554C123.168 109.101 122.961 109.039 122.415 109.742C120.462 112.009 118.666 117.637 118.666 121.467C118.666 125.376 119.916 127.33 123.899 129.362C127.491 131.16 134.207 129.909 141.704 126.001C144.594 124.516 156.152 113.807 156.152 112.713C156.152 111.696 158.417 110.133 162.712 108.179C165.836 106.694 168.179 106.303 167.71 107.319C163.102 116.465 161.931 123.578 164.43 126.392C168.101 130.456 173.411 131.238 179.971 128.737C187.156 125.923 189.108 124.594 196.761 116.934C200.901 112.713 205.04 109.039 205.977 108.804C207.304 108.335 207.695 107.632 207.695 105.678C207.695 104.192 207.148 102.629 206.523 102.082C205.742 101.457 205.352 99.6589 205.352 97.0794C205.274 92.3894 203.556 89.8099 198.558 87.3086C194.653 85.3544 189.811 85.1981 186.531 86.9178C183.485 88.4811 172.552 98.9554 172.552 100.284C172.552 100.831 172.005 101.3 171.381 101.3C170.756 101.3 170.209 100.91 170.209 100.519C170.209 99.3462 167.241 99.5807 165.133 100.988C162.009 103.02 160.838 101.926 160.838 97.2357C160.76 94.1091 160.369 92.5457 159.041 91.0606C155.059 86.2143 146.702 84.3383 141.704 86.9959ZM152.716 93.5619C154.512 95.047 155.605 99.8152 154.668 102.238C153.965 104.114 153.419 104.427 150.763 104.427C144.203 104.427 138.737 94.2654 144.438 92.5457C146.937 91.8422 151.31 92.3894 152.716 93.5619ZM197.23 93.5619C199.026 95.047 200.12 99.8152 199.182 102.238C198.48 104.114 197.933 104.427 195.278 104.427C188.718 104.427 183.251 94.2654 188.952 92.5457C191.451 91.8422 195.824 92.3894 197.23 93.5619ZM137.643 101.457C139.127 105.052 142.72 109.117 144.36 109.117C145.062 109.117 146.39 109.664 147.249 110.211C148.655 111.306 148.499 111.618 143.813 116.074C141.08 118.731 138.424 120.842 137.878 120.842C137.486 121.054 137.878 120.842 135.847 122.014C134.544 122.524 133.504 123.187 131.083 123.187C126.788 123.187 125.695 122.014 125.695 117.481C125.695 115.058 128.272 107.788 129.521 106.772C129.756 106.537 131.318 104.74 132.958 102.629C134.598 100.597 136.081 98.9554 136.316 98.9554C136.472 98.9554 137.097 100.128 137.643 101.457ZM182.158 101.457C183.641 105.052 187.234 109.117 188.874 109.117C189.577 109.117 190.904 109.664 191.763 110.211C193.169 111.306 193.013 111.618 188.327 116.074C185.594 118.731 182.939 120.842 182.392 120.842C181.767 120.842 180.908 121.389 180.361 122.014C179.737 122.796 178.019 123.187 175.598 123.187C171.302 123.187 170.209 122.014 170.209 117.481C170.209 115.058 172.786 107.788 174.036 106.772C174.27 106.537 175.832 104.74 177.472 102.629C179.112 100.597 180.596 98.9554 180.83 98.9554C180.986 98.9554 181.611 100.128 182.158 101.457Z" fill="#FFCE04"/>
</svg>
