<?xml version="1.0" standalone="no"?>
<!DOCTYPE svg PUBLIC "-//W3C//DTD SVG 20010904//EN"
 "http://www.w3.org/TR/2001/REC-SVG-20010904/DTD/svg10.dtd">
<svg version="1.0" xmlns="http://www.w3.org/2000/svg"
 width="500.000000pt" height="500.000000pt" viewBox="0 0 500.000000 500.000000"
 preserveAspectRatio="xMidYMid meet">
<metadata>
Created by potrace 1.14, written by Peter Selinger 2001-2017
</metadata>
<g transform="translate(0.000000,500.000000) scale(0.100000,-0.100000)"
fill="#000000" stroke="none">
<path d="M2237 3547 c-15 -16 -25 -33 -22 -38 4 -5 1 -9 -5 -9 -6 0 -9 -4 -6
-9 4 -5 3 -11 -1 -13 -11 -4 -49 -80 -45 -90 1 -4 -2 -8 -8 -8 -5 0 -9 -3 -8
-7 1 -5 -4 -24 -11 -43 -26 -69 -32 -212 -9 -226 4 -3 8 -16 8 -30 0 -13 5
-24 10 -24 6 0 10 -5 10 -11 0 -18 44 -109 53 -109 5 0 5 -4 2 -10 -3 -5 -1
-10 4 -10 6 0 11 -6 11 -12 0 -28 217 -253 349 -363 46 -39 91 -78 100 -87 8
-10 21 -18 28 -18 7 0 13 -4 13 -8 0 -5 12 -15 28 -23 15 -8 32 -18 38 -24 6
-5 39 -35 74 -65 35 -30 75 -66 90 -80 15 -14 40 -37 56 -51 16 -14 38 -39 49
-54 11 -16 30 -40 43 -53 12 -14 22 -31 22 -38 0 -8 4 -14 10 -14 5 0 19 -18
30 -40 11 -22 18 -40 14 -40 -4 0 -2 -6 5 -13 6 -8 9 -23 6 -35 -2 -12 0 -24
4 -26 4 -3 6 -43 5 -88 -4 -99 -5 -108 -15 -108 -4 0 -10 -13 -14 -29 -3 -16
-15 -37 -26 -47 -14 -12 -16 -20 -8 -25 8 -4 5 -9 -7 -13 -11 -4 -30 -21 -44
-39 -24 -30 -23 -30 23 8 26 21 47 43 47 47 0 4 3 7 8 6 11 -4 48 32 85 85 19
26 37 44 42 40 4 -5 5 -3 2 4 -4 6 -1 17 6 25 7 7 20 27 27 45 8 17 18 29 22
27 4 -3 8 2 8 10 0 9 9 33 20 53 11 21 20 43 20 50 0 7 5 13 10 13 6 0 10 6 9
13 -1 6 7 32 18 57 11 25 24 60 28 78 3 18 11 32 16 32 6 0 9 6 8 13 -1 6 3
25 10 41 13 32 7 133 -9 176 -1 3 -2 9 -1 14 1 5 -2 12 -7 15 -6 3 -12 15 -14
26 -1 11 -7 23 -11 26 -5 3 -10 12 -11 20 -5 25 -19 54 -33 71 -8 9 -13 21
-10 26 3 4 -3 15 -14 22 -10 8 -19 18 -19 23 0 5 -11 23 -25 39 -14 16 -22 35
-19 40 4 7 2 8 -4 4 -7 -4 -17 3 -23 18 -7 14 -16 23 -20 20 -5 -3 -9 4 -9 16
0 12 -4 18 -10 15 -5 -3 -10 -1 -10 5 0 15 -116 131 -124 123 -3 -3 -8 2 -12
11 -3 9 -10 13 -15 10 -5 -3 -12 2 -15 10 -3 9 -13 16 -21 16 -8 0 -21 7 -30
15 -8 8 -19 13 -24 10 -5 -4 -9 -2 -9 3 0 4 -16 14 -35 22 -19 8 -35 17 -35
21 0 4 -8 9 -17 13 -23 7 -56 28 -65 41 -4 6 -8 6 -8 2 0 -4 -10 1 -22 13 -12
11 -27 20 -34 20 -6 0 -15 7 -18 16 -3 8 -11 12 -17 8 -7 -4 -20 4 -31 17 -11
13 -17 18 -13 11 6 -11 3 -11 -14 0 -12 7 -21 16 -21 20 0 5 -6 8 -13 8 -7 0
-33 10 -58 22 -24 12 -62 22 -84 22 -22 1 -46 5 -54 10 -10 6 -12 6 -7 -2 4
-7 5 -12 2 -12 -12 0 -29 47 -30 80 -1 19 -5 41 -9 48 -5 6 -4 12 0 12 5 0 9
15 10 33 0 17 4 43 8 57 14 50 18 123 6 116 -6 -4 -11 -3 -11 2 0 13 -45 30
-92 35 -24 3 -38 1 -38 -7 0 -7 -3 -7 -8 -1 -4 6 -18 -1 -35 -18z"/>
<path d="M1908 3222 c-91 -126 -189 -259 -200 -272 -7 -8 -12 -15 -10 -15 5 0
-13 -47 -42 -108 -19 -41 -57 -152 -56 -164 0 -2 0 -4 -1 -5 -22 -72 -6 -238
23 -238 4 0 8 -5 8 -11 0 -9 34 -44 132 -134 15 -14 31 -25 35 -25 5 0 15 -9
23 -20 8 -11 19 -20 25 -20 6 0 17 -9 25 -20 8 -11 20 -20 27 -20 7 0 13 -7
13 -16 0 -8 4 -13 8 -10 5 3 20 -5 33 -17 13 -12 27 -22 32 -22 5 0 15 -9 23
-19 8 -11 14 -16 14 -12 0 4 7 0 16 -8 8 -9 22 -16 30 -16 8 0 14 -4 14 -10 0
-5 7 -10 15 -10 8 0 15 -4 15 -10 0 -5 6 -10 13 -10 7 0 22 -8 33 -18 11 -10
24 -17 31 -15 6 2 18 -3 27 -12 9 -9 23 -18 32 -19 9 -1 20 -9 25 -17 7 -12 9
-12 10 1 0 10 3 8 9 -5 6 -13 9 -15 9 -5 1 12 3 12 9 2 8 -12 26 -18 84 -29
16 -3 25 -10 21 -16 -3 -6 -1 -7 5 -3 7 4 17 4 24 0 7 -4 21 -9 32 -10 119
-12 163 -25 150 -45 -3 -5 0 -9 6 -9 13 0 52 -88 44 -101 -3 -5 -1 -9 3 -9 5
0 10 -15 11 -32 2 -18 4 -48 6 -66 1 -18 -1 -35 -6 -38 -5 -3 -6 -9 -3 -14 3
-4 -6 -37 -19 -73 -19 -50 -22 -67 -13 -77 10 -10 9 -11 -3 -5 -13 8 -13 7 0
-11 8 -10 31 -36 51 -56 27 -28 39 -34 48 -25 6 6 11 7 11 2 0 -5 7 0 16 11 8
10 12 13 8 5 -5 -9 -3 -12 4 -7 7 4 12 14 12 22 0 8 5 12 10 9 6 -3 10 0 10 8
0 8 7 18 16 21 9 4 14 9 11 12 -3 4 7 18 23 32 17 15 30 32 30 38 0 7 6 14 14
17 13 5 53 97 59 135 1 10 6 23 11 31 5 7 10 30 11 51 1 20 4 41 7 46 4 8 3
31 -2 37 -1 1 -3 10 -5 19 -8 42 -37 118 -46 118 -5 0 -8 3 -7 8 2 10 -35 72
-44 72 -5 0 -8 4 -8 10 0 5 -13 23 -30 38 -16 16 -30 32 -30 35 0 10 -74 79
-184 172 -33 28 -76 65 -95 83 -20 18 -54 45 -75 60 -22 15 -53 41 -71 57 -17
17 -68 64 -114 105 -46 41 -91 84 -100 94 -9 11 -26 30 -37 42 -12 12 -32 37
-45 56 -13 18 -36 47 -51 63 -15 17 -28 35 -28 42 0 7 -8 17 -17 22 -10 6 -15
11 -10 11 4 0 0 11 -9 25 -9 14 -13 25 -9 25 4 0 2 7 -5 15 -7 8 -10 21 -7 29
3 8 3 17 -1 21 -4 4 -7 10 -8 13 0 4 -4 14 -7 22 -4 8 -9 26 -11 40 -3 14 -5
25 -6 25 -7 0 -5 137 2 141 4 3 8 9 8 15 0 18 -16 8 -42 -29z"/>
</g>
</svg>
