<?xml version="1.0" standalone="no"?>
<!DOCTYPE svg PUBLIC "-//W3C//DTD SVG 20010904//EN"
 "http://www.w3.org/TR/2001/REC-SVG-20010904/DTD/svg10.dtd">
<svg version="1.0" xmlns="http://www.w3.org/2000/svg"
 width="500.000000pt" height="500.000000pt" viewBox="0 0 500.000000 500.000000"
 preserveAspectRatio="xMidYMid meet">
<metadata>
Created by potrace 1.14, written by Peter Selinger 2001-2017
</metadata>
<g transform="translate(0.000000,500.000000) scale(0.100000,-0.100000)"
fill="#000000" stroke="none">
<path d="M1924 4148 c-21 -40 -175 -239 -254 -328 -32 -36 -75 -86 -96 -111
-22 -26 -79 -94 -129 -152 -115 -134 -116 -135 -187 -242 -72 -106 -96 -159
-132 -280 -61 -210 -59 -403 5 -618 65 -215 229 -420 456 -569 118 -78 336
-155 503 -178 73 -10 313 -15 328 -7 4 3 34 7 68 11 149 15 501 139 544 191 7
8 17 15 22 15 13 0 166 106 213 148 64 56 137 126 176 168 68 74 176 225 214
297 21 40 46 84 56 98 23 32 149 284 149 297 0 17 120 283 183 406 50 99 74
134 132 191 38 39 86 79 105 89 l35 17 -35 -5 c-113 -19 -244 -137 -452 -406
-238 -307 -254 -327 -362 -444 -94 -102 -241 -231 -336 -295 -234 -159 -556
-225 -785 -162 -44 12 -139 51 -211 87 -118 58 -140 74 -226 157 -101 98 -150
166 -204 283 -62 133 -79 219 -78 404 0 160 17 251 79 430 75 217 116 310 206
468 22 39 38 72 35 72 -3 0 -13 -15 -22 -32z"/>
<path d="M3997 2667 c-15 -29 -45 -81 -68 -117 -23 -36 -49 -79 -58 -96 -9
-17 -48 -76 -87 -130 -145 -205 -435 -462 -659 -584 -44 -24 -98 -53 -120 -65
-86 -46 -222 -98 -417 -159 -183 -58 -369 -111 -415 -121 -10 -2 -47 -10 -83
-19 -36 -8 -108 -25 -160 -36 -440 -98 -907 -230 -1009 -285 -31 -17 -23 -19
16 -4 132 51 675 151 1115 205 50 6 352 54 403 64 28 5 64 12 80 15 120 19
257 52 355 85 331 112 598 323 806 636 55 82 114 181 133 219 18 39 44 90 56
115 38 74 146 322 142 326 -2 2 -15 -20 -30 -49z"/>
<path d="M865 1030 c-3 -6 1 -7 9 -4 18 7 21 14 7 14 -6 0 -13 -4 -16 -10z"/>
</g>
</svg>
